<?xml version="1.0" standalone="no"?>
<!DOCTYPE svg PUBLIC "-//W3C//DTD SVG 20010904//EN"
 "http://www.w3.org/TR/2001/REC-SVG-20010904/DTD/svg10.dtd">
<svg version="1.0" xmlns="http://www.w3.org/2000/svg"
 width="660.000000pt" height="660.000000pt" viewBox="0 0 660.000000 660.000000"
 preserveAspectRatio="xMidYMid meet">
<metadata>
Created by potrace 1.14, written by Peter Selinger 2001-2017
</metadata>
<g transform="translate(0.000000,660.000000) scale(0.100000,-0.100000)"
fill="#000000" stroke="none">
<path d="M609 6296 c-1 -28 -3 -60 -4 -71 -1 -11 -6 -67 -9 -125 -4 -58 -9
-121 -11 -140 -2 -19 -7 -78 -10 -130 -3 -52 -8 -115 -10 -140 -2 -25 -7 -88
-10 -140 -4 -52 -8 -115 -10 -140 -2 -25 -6 -83 -9 -130 -4 -47 -9 -114 -11
-150 -3 -36 -7 -92 -10 -125 -2 -33 -7 -91 -10 -130 -2 -38 -7 -104 -10 -145
-6 -73 -9 -111 -20 -275 -3 -44 -7 -105 -10 -135 -2 -30 -7 -93 -10 -140 -3
-47 -8 -107 -10 -135 -2 -27 -7 -90 -10 -140 -4 -49 -8 -108 -10 -131 -2 -22
-7 -88 -10 -145 -4 -57 -10 -111 -14 -121 -5 -13 -223 -248 -342 -367 l-26
-26 -1 -307 0 -307 46 -42 c65 -59 238 -218 277 -254 17 -16 70 -66 118 -109
l86 -79 199 0 198 1 105 -100 c57 -55 196 -189 307 -297 112 -108 236 -227
275 -265 40 -37 160 -153 267 -256 107 -103 229 -220 270 -260 67 -64 381
-367 546 -526 l63 -62 516 0 515 1 67 65 c103 98 504 485 614 592 54 52 169
163 256 247 87 83 192 184 233 223 41 40 165 159 275 265 110 106 243 234 295
283 l95 90 175 0 c96 0 186 0 200 1 15 1 46 21 76 49 27 26 99 92 159 147 59
55 139 129 178 165 38 36 84 77 102 93 l32 27 0 305 0 304 -36 39 c-20 22
-101 108 -181 192 -80 84 -148 157 -152 163 -3 7 -9 53 -12 102 -4 50 -9 124
-12 165 -2 41 -7 100 -10 130 -2 30 -7 89 -9 130 -3 41 -7 100 -10 130 -2 30
-7 98 -10 150 -3 52 -7 111 -10 130 -2 19 -7 80 -10 135 -4 55 -8 116 -10 135
-2 19 -6 78 -9 130 -4 52 -8 118 -11 145 -8 86 -19 236 -30 415 -3 52 -8 115
-10 140 -3 25 -7 83 -10 130 -3 47 -8 114 -11 150 -2 36 -6 97 -9 135 -3 39
-7 95 -9 125 -3 30 -8 96 -11 145 -3 50 -8 97 -11 106 -4 15 -44 17 -404 17
l-400 1 -50 -72 c-28 -40 -56 -79 -63 -87 -7 -9 -34 -49 -62 -90 -44 -66 -156
-230 -380 -555 -37 -55 -98 -143 -134 -195 -36 -52 -100 -147 -144 -210 -43
-63 -100 -146 -125 -185 -26 -38 -49 -72 -52 -75 -3 -3 -23 -31 -44 -62 -26
-38 -46 -58 -60 -59 -12 0 -30 -2 -41 -4 -11 -2 -46 -7 -77 -10 -31 -3 -67 -8
-80 -10 -13 -3 -45 -7 -73 -10 -27 -2 -61 -7 -75 -9 -14 -3 -50 -7 -80 -10
-30 -4 -66 -8 -80 -10 -14 -3 -52 -7 -85 -11 -58 -6 -88 -10 -165 -21 -19 -3
-57 -7 -85 -10 -27 -2 -61 -6 -75 -9 -14 -2 -50 -6 -80 -10 -30 -3 -73 -8 -95
-11 -22 -3 -51 -7 -65 -9 -14 -2 -54 -7 -90 -10 -36 -4 -72 -9 -80 -10 -8 -1
-42 -6 -76 -10 l-61 -7 -173 259 c-96 142 -215 319 -265 393 -50 74 -217 322
-370 550 -154 228 -302 449 -329 490 l-51 75 -407 1 -408 2 -1 -52z"/>
</g>
</svg>
